<svg width="152" height="152" viewBox="0 0 152 152" fill="none" xmlns="http://www.w3.org/2000/svg">
<circle cx="76" cy="76" r="75.5" fill="#DFBD8B" stroke="#BF985E"/>
<mask id="path-2-inside-1_2325_108" fill="white">
<path fill-rule="evenodd" clip-rule="evenodd" d="M16.1436 103.889C16.7699 103.263 17.4911 102.761 18.2906 102.379L18.2668 102.355L75.943 75.9099L49.4978 133.586L49.4739 133.562C49.0917 134.362 48.5897 135.083 47.9634 135.709C42.9136 140.759 31.6967 137.73 22.9099 128.943C14.1231 120.156 11.0938 108.939 16.1436 103.889Z"/>
</mask>
<path fill-rule="evenodd" clip-rule="evenodd" d="M16.1436 103.889C16.7699 103.263 17.4911 102.761 18.2906 102.379L18.2668 102.355L75.943 75.9099L49.4978 133.586L49.4739 133.562C49.0917 134.362 48.5897 135.083 47.9634 135.709C42.9136 140.759 31.6967 137.73 22.9099 128.943C14.1231 120.156 11.0938 108.939 16.1436 103.889Z" fill="#E07373"/>
<path d="M18.2906 102.379L18.7219 103.281L19.9974 102.671L18.9977 101.672L18.2906 102.379ZM18.2668 102.355L17.85 101.446L16.5429 102.045L17.5597 103.062L18.2668 102.355ZM75.943 75.9099L76.852 76.3267L77.9746 73.8783L75.5262 75.0009L75.943 75.9099ZM49.4978 133.586L48.7907 134.293L49.8075 135.31L50.4068 134.003L49.4978 133.586ZM49.4739 133.562L50.181 132.855L49.1814 131.855L48.5717 133.131L49.4739 133.562ZM17.8594 101.477C16.9621 101.906 16.1466 102.472 15.4365 103.182L16.8507 104.596C17.3932 104.054 18.02 103.617 18.7219 103.281L17.8594 101.477ZM17.5597 103.062L17.5835 103.086L18.9977 101.672L18.9739 101.648L17.5597 103.062ZM75.5262 75.0009L17.85 101.446L18.6836 103.264L76.3598 76.8189L75.5262 75.0009ZM50.4068 134.003L76.852 76.3267L75.034 75.4931L48.5888 133.169L50.4068 134.003ZM48.7668 134.269L48.7907 134.293L50.2049 132.879L50.181 132.855L48.7668 134.269ZM48.6706 136.416C49.3806 135.706 49.9473 134.891 50.3762 133.993L48.5717 133.131C48.2362 133.833 47.7988 134.46 47.2563 135.002L48.6706 136.416ZM22.2028 129.65C26.6971 134.144 31.8462 137.202 36.5773 138.48C41.2781 139.75 45.7844 139.302 48.6706 136.416L47.2563 135.002C45.0926 137.166 41.4655 137.729 37.0988 136.549C32.7623 135.378 27.9095 132.528 23.617 128.236L22.2028 129.65ZM15.4365 103.182C12.5504 106.068 12.103 110.575 13.3726 115.276C14.6504 120.007 17.7085 125.156 22.2028 129.65L23.617 128.236C19.3246 123.943 16.4746 119.09 15.3034 114.754C14.1241 110.387 14.687 106.76 16.8507 104.596L15.4365 103.182Z" fill="#B04747" mask="url(#path-2-inside-1_2325_108)"/>
<mask id="path-4-inside-2_2325_108" fill="white">
<path fill-rule="evenodd" clip-rule="evenodd" d="M48.4738 18.2905C48.0917 17.491 47.5897 16.7699 46.9634 16.1436C41.9135 11.0938 30.6967 14.1231 21.9099 22.9099C13.1231 31.6967 10.0937 42.9136 15.1436 47.9634C15.7699 48.5897 16.491 49.0917 17.2905 49.4739L17.2666 49.4978L74.9427 75.9429L48.4976 18.2668L48.4738 18.2905Z"/>
</mask>
<path fill-rule="evenodd" clip-rule="evenodd" d="M48.4738 18.2905C48.0917 17.491 47.5897 16.7699 46.9634 16.1436C41.9135 11.0938 30.6967 14.1231 21.9099 22.9099C13.1231 31.6967 10.0937 42.9136 15.1436 47.9634C15.7699 48.5897 16.491 49.0917 17.2905 49.4739L17.2666 49.4978L74.9427 75.9429L48.4976 18.2668L48.4738 18.2905Z" fill="#E7DC7E"/>
<path d="M48.4738 18.2905L47.5716 18.7218L48.1813 19.9973L49.181 18.9976L48.4738 18.2905ZM17.2905 49.4739L17.9976 50.181L18.9972 49.1813L17.7218 48.5716L17.2905 49.4739ZM17.2666 49.4978L16.5595 48.7907L15.5427 49.8075L16.8498 50.4068L17.2666 49.4978ZM74.9427 75.9429L74.526 76.8519L76.9744 77.9746L75.8517 75.5262L74.9427 75.9429ZM48.4976 18.2668L49.4066 17.85L48.8073 16.5429L47.7905 17.5597L48.4976 18.2668ZM46.2563 16.8507C46.7988 17.3932 47.2361 18.0199 47.5716 18.7218L49.3761 17.8593C48.9472 16.962 48.3806 16.1466 47.6705 15.4365L46.2563 16.8507ZM22.617 23.617C26.9095 19.3246 31.7623 16.4746 36.0987 15.3034C40.4655 14.1241 44.0926 14.687 46.2563 16.8507L47.6705 15.4365C44.7844 12.5504 40.2781 12.103 35.5773 13.3726C30.8461 14.6504 25.6971 17.7085 21.2028 22.2028L22.617 23.617ZM15.8507 47.2563C13.687 45.0926 13.1241 41.4655 14.3034 37.0988C15.4746 32.7623 18.3245 27.9095 22.617 23.617L21.2028 22.2028C16.7085 26.6971 13.6504 31.8462 12.3726 36.5773C11.103 41.2781 11.5504 45.7844 14.4365 48.6706L15.8507 47.2563ZM17.7218 48.5716C17.0199 48.2362 16.3932 47.7988 15.8507 47.2563L14.4365 48.6706C15.1466 49.3806 15.962 49.9472 16.8592 50.3761L17.7218 48.5716ZM16.5834 48.7668L16.5595 48.7907L17.9737 50.2049L17.9976 50.181L16.5834 48.7668ZM16.8498 50.4068L74.526 76.8519L75.3595 75.0339L17.6834 48.5888L16.8498 50.4068ZM75.8517 75.5262L49.4066 17.85L47.5886 18.6836L74.0337 76.3597L75.8517 75.5262ZM47.7905 17.5597L47.7667 17.5834L49.181 18.9976L49.2047 18.9739L47.7905 17.5597Z" fill="#A9A054" mask="url(#path-4-inside-2_2325_108)"/>
<mask id="path-6-inside-3_2325_108" fill="white">
<path fill-rule="evenodd" clip-rule="evenodd" d="M133.562 49.4739C134.362 49.0917 135.083 48.5897 135.709 47.9634C140.759 42.9135 137.73 31.6967 128.943 22.9099C120.156 14.1231 108.939 11.0937 103.89 16.1436C103.263 16.7699 102.761 17.491 102.379 18.2906L102.355 18.2667L75.91 75.9429L133.586 49.4977L133.562 49.4739Z"/>
</mask>
<path fill-rule="evenodd" clip-rule="evenodd" d="M133.562 49.4739C134.362 49.0917 135.083 48.5897 135.709 47.9634C140.759 42.9135 137.73 31.6967 128.943 22.9099C120.156 14.1231 108.939 11.0937 103.89 16.1436C103.263 16.7699 102.761 17.491 102.379 18.2906L102.355 18.2667L75.91 75.9429L133.586 49.4977L133.562 49.4739Z" fill="#8AD0CC"/>
<path d="M133.562 49.4739L133.131 48.5717L131.856 49.1813L132.855 50.181L133.562 49.4739ZM102.379 18.2906L101.672 18.9977L102.672 19.9974L103.281 18.7219L102.379 18.2906ZM102.355 18.2667L103.062 17.5596L102.046 16.5428L101.446 17.8499L102.355 18.2667ZM75.91 75.9429L75.001 75.5261L73.8784 77.9745L76.3268 76.8519L75.91 75.9429ZM133.586 49.4977L134.003 50.4067L135.31 49.8074L134.293 48.7906L133.586 49.4977ZM135.002 47.2563C134.46 47.7988 133.833 48.2362 133.131 48.5717L133.994 50.3761C134.891 49.9473 135.706 49.3806 136.416 48.6705L135.002 47.2563ZM128.236 23.617C132.528 27.9095 135.378 32.7623 136.55 37.0987C137.729 41.4655 137.166 45.0926 135.002 47.2563L136.416 48.6705C139.303 45.7844 139.75 41.2781 138.48 36.5773C137.203 31.8461 134.145 26.6971 129.65 22.2028L128.236 23.617ZM104.597 16.8507C106.76 14.687 110.388 14.1241 114.754 15.3034C119.091 16.4746 123.944 19.3245 128.236 23.617L129.65 22.2028C125.156 17.7085 120.007 14.6504 115.276 13.3726C110.575 12.103 106.069 12.5504 103.182 15.4365L104.597 16.8507ZM103.281 18.7219C103.617 18.02 104.054 17.3932 104.597 16.8507L103.182 15.4365C102.472 16.1466 101.906 16.9621 101.477 17.8594L103.281 18.7219ZM103.086 17.5835L103.062 17.5596L101.648 18.9738L101.672 18.9977L103.086 17.5835ZM101.446 17.8499L75.001 75.5261L76.819 76.3597L103.264 18.6835L101.446 17.8499ZM76.3268 76.8519L134.003 50.4067L133.169 48.5887L75.4933 75.0339L76.3268 76.8519ZM134.293 48.7906L134.269 48.7668L132.855 50.181L132.879 50.2048L134.293 48.7906Z" fill="#539E9A" mask="url(#path-6-inside-3_2325_108)"/>
<mask id="path-8-inside-4_2325_108" fill="white">
<path fill-rule="evenodd" clip-rule="evenodd" d="M102.379 133.562C102.761 134.362 103.263 135.083 103.89 135.709C108.939 140.759 120.156 137.73 128.943 128.943C137.73 120.156 140.759 108.939 135.709 103.889C135.083 103.263 134.362 102.761 133.563 102.379L133.586 102.355L75.9103 75.9099L102.355 133.586L102.379 133.562Z"/>
</mask>
<path fill-rule="evenodd" clip-rule="evenodd" d="M102.379 133.562C102.761 134.362 103.263 135.083 103.89 135.709C108.939 140.759 120.156 137.73 128.943 128.943C137.73 120.156 140.759 108.939 135.709 103.889C135.083 103.263 134.362 102.761 133.563 102.379L133.586 102.355L75.9103 75.9099L102.355 133.586L102.379 133.562Z" fill="#C782CD"/>
<path d="M102.379 133.562L103.281 133.131L102.672 131.856L101.672 132.855L102.379 133.562ZM133.563 102.379L132.855 101.672L131.856 102.672L133.131 103.281L133.563 102.379ZM133.586 102.355L134.294 103.062L135.31 102.045L134.003 101.446L133.586 102.355ZM75.9103 75.9099L76.3271 75.0009L73.8787 73.8783L75.0013 76.3267L75.9103 75.9099ZM102.355 133.586L101.446 134.003L102.046 135.31L103.063 134.293L102.355 133.586ZM104.597 135.002C104.054 134.46 103.617 133.833 103.281 133.131L101.477 133.994C101.906 134.891 102.472 135.706 103.182 136.416L104.597 135.002ZM128.236 128.236C123.944 132.528 119.091 135.378 114.754 136.549C110.388 137.729 106.76 137.166 104.597 135.002L103.182 136.416C106.069 139.302 110.575 139.75 115.276 138.48C120.007 137.202 125.156 134.144 129.65 129.65L128.236 128.236ZM135.002 104.597C137.166 106.76 137.729 110.387 136.55 114.754C135.378 119.091 132.528 123.943 128.236 128.236L129.65 129.65C134.145 125.156 137.203 120.007 138.48 115.276C139.75 110.575 139.303 106.068 136.417 103.182L135.002 104.597ZM133.131 103.281C133.833 103.617 134.46 104.054 135.002 104.597L136.417 103.182C135.706 102.472 134.891 101.906 133.994 101.477L133.131 103.281ZM134.27 103.086L134.294 103.062L132.879 101.648L132.855 101.672L134.27 103.086ZM134.003 101.446L76.3271 75.0009L75.4935 76.8189L133.17 103.264L134.003 101.446ZM75.0013 76.3267L101.446 134.003L103.264 133.169L76.8193 75.4931L75.0013 76.3267ZM103.063 134.293L103.086 134.269L101.672 132.855L101.648 132.879L103.063 134.293Z" fill="#9A5C9F" mask="url(#path-8-inside-4_2325_108)"/>
<mask id="path-10-inside-5_2325_108" fill="white">
<path fill-rule="evenodd" clip-rule="evenodd" d="M13.931 54C14.8167 54 15.6816 54.1549 16.5172 54.4501L16.5172 54.4164L76 76.5L16.5172 98.5836L16.5172 98.5499C15.6816 98.8451 14.8167 99 13.931 99C6.78942 99 1 88.9264 1 76.5C1 64.0736 6.78942 54 13.931 54Z"/>
</mask>
<path fill-rule="evenodd" clip-rule="evenodd" d="M13.931 54C14.8167 54 15.6816 54.1549 16.5172 54.4501L16.5172 54.4164L76 76.5L16.5172 98.5836L16.5172 98.5499C15.6816 98.8451 14.8167 99 13.931 99C6.78942 99 1 88.9264 1 76.5C1 64.0736 6.78942 54 13.931 54Z" fill="#DCA463"/>
<path d="M16.5172 54.4501L16.1842 55.393L17.5172 55.8638L17.5172 54.4501L16.5172 54.4501ZM16.5172 54.4164L16.8653 53.4789L15.5172 52.9784L15.5172 54.4164L16.5172 54.4164ZM76 76.5L76.348 77.4375L78.8732 76.5L76.348 75.5625L76 76.5ZM16.5172 98.5836L15.5172 98.5836L15.5172 100.022L16.8653 99.5211L16.5172 98.5836ZM16.5172 98.5499L17.5172 98.5499L17.5172 97.1362L16.1842 97.607L16.5172 98.5499ZM16.8503 53.5072C15.9126 53.176 14.9352 53 13.931 53L13.931 55C14.6982 55 15.4507 55.1339 16.1842 55.393L16.8503 53.5072ZM15.5172 54.4164L15.5172 54.4501L17.5172 54.4501L17.5172 54.4164L15.5172 54.4164ZM76.348 75.5625L16.8653 53.4789L16.1692 55.3538L75.652 77.4375L76.348 75.5625ZM16.8653 99.5211L76.348 77.4375L75.652 75.5625L16.1692 97.6462L16.8653 99.5211ZM15.5172 98.5499L15.5172 98.5836L17.5172 98.5836L17.5172 98.5499L15.5172 98.5499ZM13.931 100C14.9352 100 15.9126 99.824 16.8503 99.4928L16.1842 97.607C15.4507 97.8661 14.6982 98 13.931 98L13.931 100ZM-1.34155e-07 76.5C-9.6258e-08 82.8559 1.47848 88.6593 3.9204 92.9082C6.34667 97.1299 9.8494 100 13.931 100L13.931 98C10.8711 98 7.90827 95.8333 5.65443 91.9116C3.41623 88.0172 2 82.5705 2 76.5L-1.34155e-07 76.5ZM13.931 53C9.8494 53 6.34667 55.8701 3.9204 60.0918C1.47848 64.3407 -1.72052e-07 70.1441 -1.34155e-07 76.5L2 76.5C2 70.4295 3.41623 64.9828 5.65443 61.0884C7.90827 57.1667 10.8711 55 13.931 55L13.931 53Z" fill="#BC9363" mask="url(#path-10-inside-5_2325_108)"/>
<mask id="path-12-inside-6_2325_108" fill="white">
<path fill-rule="evenodd" clip-rule="evenodd" d="M97.5499 16.5172C97.8451 15.6816 98 14.8167 98 13.931C98 6.78942 87.9264 1 75.5 1C63.0736 1 53 6.78942 53 13.931C53 14.8167 53.1549 15.6816 53.4501 16.5172L53.4164 16.5172L75.5 76L97.5837 16.5172L97.5499 16.5172Z"/>
</mask>
<path fill-rule="evenodd" clip-rule="evenodd" d="M97.5499 16.5172C97.8451 15.6816 98 14.8167 98 13.931C98 6.78942 87.9264 1 75.5 1C63.0736 1 53 6.78942 53 13.931C53 14.8167 53.1549 15.6816 53.4501 16.5172L53.4164 16.5172L75.5 76L97.5837 16.5172L97.5499 16.5172Z" fill="#9FDA8B"/>
<path d="M97.5499 16.5172L96.607 16.1842L96.1362 17.5172L97.5499 17.5172L97.5499 16.5172ZM53.4501 16.5172L53.4501 17.5172L54.8638 17.5172L54.393 16.1842L53.4501 16.5172ZM53.4164 16.5172L53.4164 15.5172L51.9784 15.5172L52.4789 16.8653L53.4164 16.5172ZM75.5 76L74.5625 76.3481L75.5 78.8732L76.4375 76.3481L75.5 76ZM97.5837 16.5172L98.5211 16.8653L99.0216 15.5172L97.5837 15.5172L97.5837 16.5172ZM97 13.931C97 14.6982 96.8661 15.4507 96.607 16.1842L98.4928 16.8503C98.824 15.9126 99 14.9352 99 13.931L97 13.931ZM75.5 2C81.5705 2 87.0172 3.41623 90.9116 5.65443C94.8333 7.90827 97 10.8711 97 13.931L99 13.931C99 9.8494 96.1299 6.34667 91.9082 3.9204C87.6593 1.47849 81.8559 2.26032e-06 75.5 1.76245e-06L75.5 2ZM54 13.931C54 10.8711 56.1667 7.90827 60.0884 5.65443C63.9828 3.41623 69.4295 2 75.5 2L75.5 1.76245e-06C69.1441 1.26458e-06 63.3407 1.47849 59.0918 3.9204C54.8701 6.34667 52 9.8494 52 13.931L54 13.931ZM54.393 16.1842C54.1339 15.4507 54 14.6982 54 13.931L52 13.931C52 14.9352 52.176 15.9126 52.5072 16.8503L54.393 16.1842ZM53.4501 15.5172L53.4164 15.5172L53.4164 17.5172L53.4501 17.5172L53.4501 15.5172ZM52.4789 16.8653L74.5625 76.3481L76.4375 75.652L54.3538 16.1692L52.4789 16.8653ZM76.4375 76.3481L98.5211 16.8653L96.6462 16.1692L74.5625 75.652L76.4375 76.3481ZM97.5837 15.5172L97.5499 15.5172L97.5499 17.5172L97.5837 17.5172L97.5837 15.5172Z" fill="#74A663" mask="url(#path-12-inside-6_2325_108)"/>
<mask id="path-14-inside-7_2325_108" fill="white">
<path fill-rule="evenodd" clip-rule="evenodd" d="M135.483 98.5499C136.318 98.8451 137.183 99 138.069 99C145.211 99 151 88.9264 151 76.5C151 64.0736 145.211 54 138.069 54C137.183 54 136.318 54.1549 135.483 54.4501L135.483 54.4164L76 76.5L135.483 98.5837L135.483 98.5499Z"/>
</mask>
<path fill-rule="evenodd" clip-rule="evenodd" d="M135.483 98.5499C136.318 98.8451 137.183 99 138.069 99C145.211 99 151 88.9264 151 76.5C151 64.0736 145.211 54 138.069 54C137.183 54 136.318 54.1549 135.483 54.4501L135.483 54.4164L76 76.5L135.483 98.5837L135.483 98.5499Z" fill="#988DD8"/>
<path d="M135.483 98.5499L135.816 97.607L134.483 97.1362L134.483 98.5499L135.483 98.5499ZM135.483 54.4501L134.483 54.4501L134.483 55.8638L135.816 55.393L135.483 54.4501ZM135.483 54.4164L136.483 54.4164L136.483 52.9784L135.135 53.4789L135.483 54.4164ZM76 76.5L75.6519 75.5625L73.1268 76.5L75.6519 77.4375L76 76.5ZM135.483 98.5837L135.135 99.5211L136.483 100.022L136.483 98.5837L135.483 98.5837ZM138.069 98C137.302 98 136.549 97.8661 135.816 97.607L135.15 99.4928C136.087 99.824 137.065 100 138.069 100L138.069 98ZM150 76.5C150 82.5705 148.584 88.0172 146.346 91.9116C144.092 95.8333 141.129 98 138.069 98L138.069 100C142.151 100 145.653 97.1299 148.08 92.9082C150.522 88.6593 152 82.8559 152 76.5L150 76.5ZM138.069 55C141.129 55 144.092 57.1667 146.346 61.0884C148.584 64.9828 150 70.4295 150 76.5L152 76.5C152 70.1441 150.522 64.3407 148.08 60.0918C145.653 55.8701 142.151 53 138.069 53L138.069 55ZM135.816 55.393C136.549 55.1339 137.302 55 138.069 55L138.069 53C137.065 53 136.087 53.176 135.15 53.5072L135.816 55.393ZM136.483 54.4501L136.483 54.4164L134.483 54.4164L134.483 54.4501L136.483 54.4501ZM135.135 53.4789L75.6519 75.5625L76.348 77.4375L135.831 55.3538L135.135 53.4789ZM75.6519 77.4375L135.135 99.5211L135.831 97.6462L76.348 75.5625L75.6519 77.4375ZM136.483 98.5837L136.483 98.5499L134.483 98.5499L134.483 98.5837L136.483 98.5837Z" fill="#6E63AE" mask="url(#path-14-inside-7_2325_108)"/>
<mask id="path-16-inside-8_2325_108" fill="white">
<path fill-rule="evenodd" clip-rule="evenodd" d="M53.4501 135.483C53.1549 136.318 53 137.183 53 138.069C53 145.211 63.0736 151 75.5 151C87.9264 151 98 145.211 98 138.069C98 137.183 97.8451 136.318 97.5499 135.483L97.5836 135.483L75.5 76L53.4164 135.483L53.4501 135.483Z"/>
</mask>
<path fill-rule="evenodd" clip-rule="evenodd" d="M53.4501 135.483C53.1549 136.318 53 137.183 53 138.069C53 145.211 63.0736 151 75.5 151C87.9264 151 98 145.211 98 138.069C98 137.183 97.8451 136.318 97.5499 135.483L97.5836 135.483L75.5 76L53.4164 135.483L53.4501 135.483Z" fill="#DC89B1"/>
<path d="M53.4501 135.483L54.393 135.816L54.8638 134.483L53.4501 134.483L53.4501 135.483ZM97.5499 135.483L97.5499 134.483L96.1362 134.483L96.607 135.816L97.5499 135.483ZM97.5836 135.483L97.5836 136.483L99.0216 136.483L98.5211 135.135L97.5836 135.483ZM75.5 76L76.4375 75.652L75.5 73.1268L74.5625 75.652L75.5 76ZM53.4164 135.483L52.4789 135.135L51.9784 136.483L53.4164 136.483L53.4164 135.483ZM54 138.069C54 137.302 54.1339 136.549 54.393 135.816L52.5072 135.15C52.176 136.087 52 137.065 52 138.069L54 138.069ZM75.5 150C69.4295 150 63.9828 148.584 60.0884 146.346C56.1667 144.092 54 141.129 54 138.069L52 138.069C52 142.151 54.8701 145.653 59.0918 148.08C63.3407 150.522 69.1441 152 75.5 152L75.5 150ZM97 138.069C97 141.129 94.8333 144.092 90.9116 146.346C87.0172 148.584 81.5705 150 75.5 150L75.5 152C81.8559 152 87.6593 150.522 91.9082 148.08C96.1299 145.653 99 142.151 99 138.069L97 138.069ZM96.607 135.816C96.8661 136.549 97 137.302 97 138.069L99 138.069C99 137.065 98.824 136.087 98.4928 135.15L96.607 135.816ZM97.5499 136.483L97.5836 136.483L97.5836 134.483L97.5499 134.483L97.5499 136.483ZM98.5211 135.135L76.4375 75.652L74.5625 76.348L96.6462 135.831L98.5211 135.135ZM74.5625 75.652L52.4789 135.135L54.3538 135.831L76.4375 76.348L74.5625 75.652ZM53.4164 136.483L53.4501 136.483L53.4501 134.483L53.4164 134.483L53.4164 136.483Z" fill="#AA5980" mask="url(#path-16-inside-8_2325_108)"/>
</svg>
